<svg xmlns="http://www.w3.org/2000/svg" xmlns:xlink="http://www.w3.org/1999/xlink">
  <symbol id="default" viewBox="0 0 16 16" xml:space="preserve">
  <path d="M14.264,8.345c0,1.063-0.218,2.068-0.653,3.013c-0.463,0.985-1.11,1.782-1.942,2.389l1.1,0.862L9.229,15.56l0.327-3.517 l0.991,0.782c1.024-0.905,1.536-2.163,1.536-3.774c0-2.068-0.984-3.684-2.953-4.847l1.248-2.427 c1.216,0.588,2.174,1.496,2.874,2.725C13.928,5.677,14.264,6.958,14.264,8.345z M8.413,11.125c0,0.231-0.008,0.476-0.023,0.733 c-0.017,0.26-0.024,0.41-0.024,0.451c0,0.789-0.415,1.54-1.243,2.249c-0.83,0.712-1.767,1.066-2.813,1.066 c-0.741,0-1.355-0.132-1.843-0.395c-0.486-0.264-0.73-0.696-0.73-1.295c0-0.378,0.146-0.698,0.437-0.956 c0.291-0.258,0.627-0.386,1.008-0.386c0.371,0,0.695,0.115,0.977,0.346c0.28,0.233,0.421,0.533,0.421,0.9 c0,0.284-0.098,0.535-0.292,0.751c-0.195,0.213-0.293,0.375-0.293,0.48c0,0.083,0.039,0.149,0.119,0.198 c0.079,0.046,0.197,0.07,0.354,0.07c0.327,0,0.555-0.19,0.687-0.568c0.132-0.379,0.197-0.879,0.197-1.5l0.017-1.658V6.231 L5.351,5.584C5.33,5.333,5.298,5.144,5.256,5.016C5.214,4.89,5.024,4.811,4.688,4.78L4.104,4.748V4.496h4.309V11.125z M8.397,1.86 c0,0.42-0.15,0.775-0.452,1.063C7.645,3.214,7.276,3.36,6.843,3.36c-0.423,0-0.785-0.146-1.087-0.436 C5.454,2.635,5.304,2.281,5.304,1.86c0-0.412,0.15-0.762,0.452-1.051C6.058,0.521,6.42,0.376,6.843,0.376 c0.434,0,0.802,0.139,1.103,0.418C8.247,1.072,8.397,1.429,8.397,1.86z"/>
  </symbol>
</svg>
